<?xml version="1.0" standalone="no"?>
<!DOCTYPE svg PUBLIC "-//W3C//DTD SVG 20010904//EN"
 "http://www.w3.org/TR/2001/REC-SVG-20010904/DTD/svg10.dtd">
<svg version="1.0" xmlns="http://www.w3.org/2000/svg"
 width="669.000000pt" height="669.000000pt" viewBox="0 0 669.000000 669.000000"
 preserveAspectRatio="xMidYMid meet">
<metadata>
Created by potrace 1.14, written by Peter Selinger 2001-2017
</metadata>
<g transform="translate(0.000000,669.000000) scale(0.100000,-0.100000)"
fill="#000000" stroke="none">
<path d="M4320 4949 c-30 -12 -216 -57 -268 -65 -20 -3 -44 -7 -52 -9 -21 -6
-111 -18 -136 -19 -21 0 -21 0 2 -34 45 -66 48 -108 48 -757 0 -656 -3 -699
-51 -755 l-25 -30 302 0 301 0 -20 26 c-21 27 -35 69 -46 139 -3 22 -6 372 -6
778 0 557 -3 737 -12 736 -7 0 -23 -5 -37 -10z"/>
<path d="M24 4849 c-2 -4 3 -12 11 -19 8 -6 22 -37 32 -68 17 -52 18 -109 18
-697 0 -588 -1 -644 -18 -691 -10 -28 -27 -61 -38 -72 l-20 -22 308 0 c205 1
302 4 291 10 -16 10 -41 66 -55 125 -4 17 -9 337 -10 712 l-4 682 89 -3 c76
-2 97 -7 135 -30 104 -60 165 -202 165 -379 0 -137 -47 -248 -142 -334 -54
-48 -91 -67 -155 -78 -93 -15 -29 -22 192 -20 248 2 271 6 362 60 48 28 119
103 145 154 45 90 63 255 38 351 -48 178 -194 294 -399 316 -81 9 -940 11
-945 3z"/>
<path d="M6181 4825 c-18 -21 -161 -308 -157 -312 8 -9 133 55 217 110 89 59
244 195 234 206 -11 11 -286 7 -294 -4z"/>
<path d="M2133 4818 c-6 -7 -12 -17 -14 -23 -2 -5 -31 -62 -64 -125 -84 -163
-87 -170 -67 -163 115 45 278 151 380 248 l77 74 -151 1 c-110 0 -154 -3 -161
-12z"/>
<path d="M1870 4419 c-146 -16 -301 -91 -395 -191 -78 -83 -115 -151 -142
-258 -2 -8 -5 -55 -7 -105 -6 -162 37 -277 144 -385 85 -85 100 -96 184 -136
110 -52 213 -76 351 -79 138 -4 227 14 334 66 66 33 208 157 194 170 -4 3 -32
13 -60 22 l-53 15 0 -28 c0 -34 -48 -101 -92 -128 -104 -64 -286 -87 -363 -45
-154 82 -210 307 -181 726 8 126 24 186 66 249 37 56 70 71 157 70 84 -1 99
-4 144 -24 74 -32 97 -93 105 -273 3 -72 7 -136 9 -142 3 -8 -5 -13 -18 -14
-12 0 -35 -2 -52 -4 -16 -2 -57 -7 -90 -10 -33 -3 -80 -7 -105 -10 -25 -2 -69
-7 -99 -9 -124 -12 -43 -16 327 -16 l392 0 0 33 c0 48 -53 191 -94 252 -70
106 -224 206 -367 239 -78 19 -200 25 -289 15z"/>
<path d="M3218 4425 c-2 -2 -21 -5 -43 -9 -207 -30 -379 -150 -459 -320 -43
-90 -57 -159 -55 -266 4 -212 91 -363 269 -470 63 -37 157 -73 230 -88 19 -3
89 -6 155 -6 135 0 213 16 312 64 67 33 203 155 187 169 -5 5 -30 15 -55 23
l-45 16 -12 -42 c-19 -72 -89 -130 -191 -160 -115 -34 -206 -13 -275 64 -89
99 -127 246 -122 475 6 257 63 417 174 482 35 21 52 25 95 21 79 -6 140 -42
238 -136 92 -89 125 -139 165 -250 l24 -67 -6 100 c-11 217 -16 260 -26 272
-21 26 -191 93 -268 107 -14 2 -41 7 -60 11 -34 6 -227 14 -232 10z"/>
<path d="M4681 4414 c-126 -33 -200 -106 -259 -257 -23 -59 -42 -111 -42 -115
0 -4 14 18 30 48 94 173 270 186 341 25 32 -73 43 -172 43 -405 0 -288 -11
-368 -56 -410 l-22 -20 304 0 303 0 -21 23 c-45 48 -53 106 -57 402 -3 249 -8
308 -31 400 -36 138 -103 227 -209 275 -94 43 -233 58 -324 34z"/>
<path d="M5915 4403 c-269 -49 -440 -172 -516 -373 -26 -70 -29 -85 -33 -183
-10 -276 163 -489 469 -573 81 -23 124 -28 240 -27 179 0 310 46 423 148 93
84 94 90 22 108 l-60 15 0 -25 c0 -37 -36 -89 -84 -122 -50 -35 -160 -70 -236
-75 -242 -16 -350 230 -317 725 11 162 20 199 63 267 19 29 46 58 62 64 15 6
68 11 118 11 81 -1 96 -4 133 -27 80 -51 93 -97 101 -344 1 -40 1 -74 -1 -76
-4 -3 -71 -11 -194 -22 -33 -3 -69 -7 -80 -9 -11 -2 -35 -4 -52 -4 -18 -1 -33
-5 -33 -9 0 -4 162 -9 360 -10 l360 -2 0 29 c0 44 -48 188 -78 236 -84 133
-222 225 -400 266 -47 11 -229 19 -267 12z"/>
<path d="M5885 3869 c-15 -5 -12 -7 13 -6 17 0 32 3 32 7 0 9 -21 9 -45 -1z"/>
<path d="M6483 3232 c-6 -4 -19 -30 -28 -57 -9 -28 -20 -59 -25 -70 -5 -11
-16 -44 -25 -72 -9 -29 -22 -56 -28 -60 -7 -4 -37 -8 -68 -9 -71 -1 -109 -11
-109 -28 0 -22 21 -34 73 -41 27 -4 51 -13 53 -19 2 -6 -9 -40 -26 -74 -16
-34 -30 -64 -30 -67 0 -9 -74 -129 -94 -152 -30 -36 -107 -89 -137 -96 -14 -4
-33 -1 -42 6 -21 15 -25 83 -7 117 18 34 76 86 111 100 32 13 39 44 13 54 -56
21 -125 -24 -277 -181 -62 -63 -120 -119 -129 -124 -31 -17 -89 39 -88 84 0 7
33 33 73 58 88 55 147 123 149 170 2 51 -10 75 -43 92 -94 45 -204 -70 -249
-261 -12 -50 -11 -55 16 -110 33 -65 80 -102 130 -102 35 0 74 28 160 118 23
23 44 42 47 42 4 0 7 -12 7 -27 0 -36 34 -91 63 -102 12 -5 42 -7 67 -5 89 7
241 143 276 247 13 37 24 14 25 -50 0 -38 2 -75 4 -83 1 -8 5 -29 8 -46 9 -57
88 -160 140 -182 35 -15 37 -15 37 3 0 8 3 14 8 12 8 -2 12 6 12 26 0 6 -18
31 -40 54 -66 68 -79 110 -76 233 2 58 9 138 16 178 l13 72 36 2 c20 0 41 2
46 3 111 18 138 31 140 65 3 40 -47 47 -164 24 -31 -7 -34 -5 -27 12 4 10 10
29 12 42 3 13 15 51 27 85 23 62 24 91 5 115 -12 13 -37 16 -55 4z m-718 -454
c-11 -39 -135 -150 -135 -121 0 15 55 100 79 120 35 31 65 31 56 1z"/>
<path d="M4532 3110 c-107 -24 -201 -164 -260 -385 -50 -190 -51 -415 -2 -415
17 0 33 44 37 100 2 30 11 91 19 135 26 134 41 178 60 171 23 -9 210 90 245
131 53 60 58 164 12 230 -16 22 -76 40 -111 33z m41 -103 c5 -13 1 -87 -5 -91
-23 -19 -150 -87 -154 -83 -6 6 29 79 59 120 18 26 72 67 88 67 4 0 9 -6 12
-13z"/>
<path d="M5419 2933 c-72 -76 -66 -92 19 -49 56 28 82 58 82 93 0 41 -34 26
-101 -44z"/>
<path d="M4662 2800 c-58 -54 -99 -312 -66 -417 16 -50 19 -54 31 -37 18 24
30 74 38 153 7 67 33 125 68 154 30 23 124 68 148 70 11 1 34 13 50 28 26 23
28 27 12 33 -14 6 -15 9 -3 16 11 7 8 10 -11 15 -27 7 -107 -20 -175 -60 l-41
-24 -1 31 c0 17 -7 37 -14 45 -12 11 -17 10 -36 -7z"/>
<path d="M5435 2813 c-16 -2 -81 -13 -144 -25 -96 -18 -121 -19 -158 -10 -59
16 -90 15 -122 -4 -33 -19 -73 -82 -94 -145 -26 -78 -16 -249 15 -249 4 0 8
-6 8 -13 0 -17 42 -37 76 -37 32 0 71 42 112 122 44 88 62 143 62 194 0 24 3
44 8 45 4 0 15 2 24 4 9 2 34 5 55 8 21 3 45 8 53 11 8 3 28 8 43 10 23 4 28
2 23 -11 -4 -9 -13 -62 -21 -118 l-14 -102 -124 -124 c-138 -138 -186 -205
-227 -318 -22 -61 -27 -89 -24 -142 6 -111 49 -179 113 -181 70 -2 109 57 219
330 39 97 82 221 96 275 13 54 31 106 39 115 8 9 22 34 31 55 15 37 15 39 -4
44 -18 5 -20 11 -15 61 3 30 12 79 21 109 14 49 14 56 0 78 -9 14 -17 24 -19
24 -1 -1 -15 -4 -32 -6z m-343 -132 c34 -1 39 -27 20 -96 -15 -54 -72 -165
-96 -184 -12 -10 -18 -8 -32 14 -28 43 -24 158 9 237 12 28 19 33 43 32 16 -1
41 -3 56 -3z m209 -437 c-16 -49 -44 -127 -61 -174 -17 -47 -34 -94 -37 -105
-4 -10 -23 -51 -42 -90 -42 -82 -64 -93 -86 -41 -32 77 -9 192 58 291 22 33
45 65 51 71 6 7 40 43 76 82 36 38 66 66 68 62 2 -4 -10 -48 -27 -96z"/>
</g>
</svg>
